<svg id="visual" viewBox="0 0 1600 300" width="1600" height="300" xmlns="http://www.w3.org/2000/svg" xmlns:xlink="http://www.w3.org/1999/xlink" version="1.1"><path d="M0 147L133.3 142.7C266.7 138.3 533.3 129.7 800 133.2C1066.7 136.7 1333.3 152.3 1466.7 160.2L1600 168L1600 0L1466.7 0C1333.3 0 1066.7 0 800 0C533.3 0 266.7 0 133.3 0L0 0Z" fill="#27272a"></path><path d="M0 106L133.3 104.2C266.7 102.3 533.3 98.7 800 97.5C1066.7 96.3 1333.3 97.7 1466.7 98.3L1600 99L1600 0L1466.7 0C1333.3 0 1066.7 0 800 0C533.3 0 266.7 0 133.3 0L0 0Z" fill="#232326"></path><path d="M0 100L133.3 100.8C266.7 101.7 533.3 103.3 800 98.7C1066.7 94 1333.3 83 1466.7 77.5L1600 72L1600 0L1466.7 0C1333.3 0 1066.7 0 800 0C533.3 0 266.7 0 133.3 0L0 0Z" fill="#1f1f22"></path><path d="M0 73L133.3 74C266.7 75 533.3 77 800 75.5C1066.7 74 1333.3 69 1466.7 66.5L1600 64L1600 0L1466.7 0C1333.3 0 1066.7 0 800 0C533.3 0 266.7 0 133.3 0L0 0Z" fill="#1b1b1e"></path><path d="M0 33L133.3 32.8C266.7 32.7 533.3 32.3 800 35.2C1066.7 38 1333.3 44 1466.7 47L1600 50L1600 0L1466.7 0C1333.3 0 1066.7 0 800 0C533.3 0 266.7 0 133.3 0L0 0Z" fill="#18181b"></path></svg>